<?xml version="1.0" encoding="UTF-8"?>
<svg xmlns="http://www.w3.org/2000/svg" viewBox="0 0 343.45 76.91">
  <defs>
    <style>
      .cls-1 {
        fill: #2d2d2b;
      }

      .cls-2 {
        fill: #174951;
      }

      .cls-3 {
        fill: #1d5d69;
      }
    </style>
  </defs>
  <g>
    <path class="cls-2" d="M39.11,6.98c4.08,4.08,4.08,10.69,0,14.77l-13.63,13.63c-2.88,2.88-4.43,5.77-4.66,8.67-.23,2.9,1.02,5.72,3.75,8.44,2.73,2.73,5.58,3.99,8.56,3.79,2.98-.2,5.88-1.71,8.71-4.54l13.63-13.63c4.08-4.08,10.69-4.08,14.77,0l.07.07c4.08,4.08,4.08,10.69,0,14.77l-13.63,13.63c-4.9,4.9-10.11,8.04-15.64,9.43-5.53,1.39-10.94,1.18-16.24-.64-5.3-1.82-10.12-4.9-14.46-9.24-4.34-4.34-7.35-9.09-9.01-14.24-1.67-5.15-1.76-10.41-.27-15.79,1.49-5.38,4.71-10.54,9.66-15.49l13.63-13.63c4.08-4.08,10.69-4.08,14.77,0Z"/>
    <path class="cls-3" d="M74.22,17.92l-4.93,4.93c-4.1,4.1-10.74,4.1-14.84,0-4.1-4.1-4.1-10.74,0-14.84l4.93-4.93c4.1-4.1,10.75-4.1,14.84,0,4.1,4.1,4.1,10.75,0,14.84"/>
  </g>
  <g>
    <path class="cls-1" d="M113.26,45.51h-4.91v-21.53c.2-.08.52-.17.94-.27.42-.1.88-.15,1.36-.15.89,0,1.55.17,1.97.52.43.34.64.92.64,1.73v19.71ZM122.66,61.53c-3.03,0-5.62-.56-7.76-1.67-2.14-1.11-3.77-2.69-4.88-4.73-1.11-2.04-1.67-4.42-1.67-7.13v-4.97h4.91v4.55c0,3.24.9,5.67,2.7,7.31,1.8,1.64,4.03,2.46,6.7,2.46s4.9-.82,6.7-2.46c1.8-1.64,2.7-4.07,2.7-7.31v-4.55h4.97v4.97c0,2.71-.56,5.09-1.67,7.13-1.11,2.04-2.74,3.62-4.88,4.73-2.14,1.11-4.75,1.67-7.82,1.67ZM137.04,45.51h-4.97v-21.53c.2-.08.52-.17.94-.27.42-.1.88-.15,1.36-.15.89,0,1.56.17,2,.52.44.34.67.92.67,1.73v19.71Z"/>
    <path class="cls-1" d="M152.75,42.79h-4.91v-18.8c.2-.08.52-.17.94-.27.42-.1.88-.15,1.36-.15.89,0,1.55.17,1.97.52.42.34.64.92.64,1.73v16.98ZM147.83,38.72h4.91v21.9c-.2.08-.51.17-.91.27-.41.1-.85.15-1.33.15-.89,0-1.56-.18-2-.55-.45-.36-.67-.93-.67-1.7v-20.08Z"/>
    <path class="cls-1" d="M186.35,23.86l.3,4.19h-14.19c-.12-.2-.24-.49-.36-.85-.12-.36-.18-.75-.18-1.15,0-.69.16-1.22.48-1.61.32-.38.79-.58,1.4-.58h12.56ZM183.8,26.41h4.91v34.21c-.2.08-.52.17-.94.27-.42.1-.86.15-1.3.15-.89,0-1.56-.18-2-.55-.45-.36-.67-.93-.67-1.7V26.41ZM186.23,28.05l-.3-4.19h14.13c.12.16.24.42.36.79.12.36.18.75.18,1.15,0,.65-.16,1.18-.49,1.61-.32.42-.79.64-1.39.64h-12.5Z"/>
    <path class="cls-1" d="M239.06,42.3c0,4.2-.77,7.73-2.3,10.58-1.54,2.85-3.63,5.01-6.28,6.46-2.65,1.46-5.65,2.18-9.01,2.18s-6.31-.73-8.98-2.18c-2.67-1.46-4.77-3.61-6.31-6.46-1.54-2.85-2.3-6.38-2.3-10.58s.79-7.73,2.37-10.58c1.58-2.85,3.69-5,6.34-6.46,2.65-1.45,5.61-2.18,8.89-2.18s6.3.73,8.95,2.18c2.65,1.46,4.75,3.61,6.31,6.46,1.56,2.85,2.34,6.38,2.34,10.58ZM234.03,42.3c0-4.81-1.14-8.52-3.43-11.13-2.29-2.61-5.33-3.91-9.13-3.91s-6.78,1.3-9.07,3.91c-2.28,2.61-3.43,6.32-3.43,11.13s1.13,8.52,3.4,11.13c2.26,2.61,5.3,3.91,9.1,3.91s6.89-1.3,9.16-3.91c2.26-2.61,3.4-6.32,3.4-11.13Z"/>
    <path class="cls-1" d="M280.85,42.3c0,4.2-.77,7.73-2.3,10.58-1.54,2.85-3.63,5.01-6.28,6.46-2.65,1.46-5.65,2.18-9.01,2.18s-6.31-.73-8.98-2.18c-2.67-1.46-4.77-3.61-6.31-6.46-1.54-2.85-2.3-6.38-2.3-10.58s.79-7.73,2.37-10.58c1.58-2.85,3.69-5,6.34-6.46,2.65-1.45,5.61-2.18,8.89-2.18s6.3.73,8.95,2.18c2.65,1.46,4.75,3.61,6.31,6.46,1.56,2.85,2.34,6.38,2.34,10.58ZM275.82,42.3c0-4.81-1.14-8.52-3.43-11.13-2.29-2.61-5.33-3.91-9.13-3.91s-6.79,1.3-9.07,3.91c-2.28,2.61-3.43,6.32-3.43,11.13s1.13,8.52,3.4,11.13c2.26,2.61,5.3,3.91,9.1,3.91s6.89-1.3,9.16-3.91c2.26-2.61,3.4-6.32,3.4-11.13Z"/>
    <path class="cls-1" d="M294.56,42.85h-4.97v-18.86c.2-.08.52-.17.94-.27.43-.1.88-.15,1.37-.15.89,0,1.56.17,2,.52.44.34.67.92.67,1.73v17.04ZM289.59,39.21h4.97v21.05l-2.3.49c-.77,0-1.41-.25-1.91-.76-.51-.51-.76-1.14-.76-1.91v-18.86ZM292.26,60.74v-4.25h19.71c.2.16.36.43.48.79.12.36.18.77.18,1.21,0,.69-.18,1.23-.55,1.64-.36.41-.85.61-1.46.61h-18.38Z"/>
    <path class="cls-1" d="M330.16,57.4c2.71,0,4.76-.62,6.16-1.85,1.39-1.23,2.09-2.82,2.09-4.76,0-1.66-.54-3.02-1.61-4.09-1.07-1.07-2.76-1.95-5.06-2.64l-5.28-1.58c-1.7-.53-3.17-1.2-4.43-2.03-1.25-.83-2.21-1.86-2.88-3.09-.67-1.23-1-2.68-1-4.34,0-3.11,1.13-5.55,3.4-7.31,2.26-1.76,5.28-2.64,9.04-2.64,2.18,0,4.13.23,5.85.7,1.72.47,3.07,1.06,4.06,1.79.99.73,1.49,1.5,1.49,2.3,0,.53-.14,1-.42,1.43s-.65.76-1.09,1c-1.01-.81-2.38-1.52-4.1-2.12s-3.59-.91-5.61-.91c-2.35,0-4.21.51-5.58,1.55-1.38,1.03-2.06,2.44-2.06,4.22,0,1.42.49,2.57,1.49,3.46.99.89,2.6,1.66,4.82,2.3l3.7,1.09c3.19.89,5.71,2.18,7.55,3.88,1.84,1.7,2.76,4.05,2.76,7.04,0,3.19-1.16,5.78-3.49,7.76-2.33,1.98-5.59,2.97-9.8,2.97-2.47,0-4.62-.27-6.46-.82s-3.27-1.23-4.31-2.06c-1.03-.83-1.55-1.65-1.55-2.46,0-.69.21-1.26.64-1.73.43-.46.92-.8,1.49-1,.93.89,2.24,1.77,3.94,2.64,1.7.87,3.78,1.3,6.25,1.3Z"/>
  </g>
</svg>